# WaveFront *.obj file (generated by Autodesk ATF)

mtllib Hex Shaft Holder.mtl

g Solid1

v -0.675000 0.000000 0.000000
v -0.675000 0.200000 0.000000
v -0.616643 0.000000 -0.274547
v -0.616643 0.000000 0.274547
v -0.616643 0.200000 -0.274547
v -0.616643 0.200000 0.274547
v -0.509744 0.200000 -0.125641
v -0.509744 0.200000 0.125641
v -0.509744 0.500000 -0.125641
v -0.509744 0.500000 0.125641
v -0.451663 0.000000 -0.501623
v -0.451663 0.000000 0.501623
v -0.451663 0.200000 -0.501623
v -0.451663 0.200000 0.501623
v -0.392968 0.200000 -0.348139
v -0.392968 0.200000 0.348139
v -0.392968 0.500000 -0.348139
v -0.392968 0.500000 0.348139
v -0.286483 0.000000 0.000000
v -0.286483 0.500000 0.000000
v -0.208586 0.000000 -0.641963
v -0.208586 0.000000 0.641963
v -0.208586 0.200000 -0.641963
v -0.208586 0.200000 0.641963
v -0.186168 0.200000 -0.490884
v -0.186168 0.200000 0.490884
v -0.186168 0.500000 -0.490884
v -0.186168 0.500000 0.490884
v -0.143242 0.000000 -0.248102
v -0.143242 0.000000 0.248102
v -0.143242 0.500000 -0.248102
v -0.143242 0.500000 0.248102
v 0.063282 0.200000 -0.521172
v 0.063282 0.200000 0.521172
v 0.063282 0.500000 -0.521172
v 0.063282 0.500000 0.521172
v 0.070557 0.000000 -0.671302
v 0.070557 0.000000 0.671302
v 0.070557 0.200000 -0.671302
v 0.070557 0.200000 0.671302
v 0.143242 0.000000 -0.248102
v 0.143242 0.000000 0.248102
v 0.143242 0.500000 -0.248102
v 0.143242 0.500000 0.248102
v 0.286483 0.000000 0.000000
v 0.286483 0.500000 0.000000
v 0.298234 0.200000 -0.432067
v 0.298234 0.200000 0.432067
v 0.298234 0.500000 -0.432067
v 0.298234 0.500000 0.432067
v 0.337500 0.000000 -0.584567
v 0.337500 0.000000 0.584567
v 0.337500 0.200000 -0.584567
v 0.337500 0.200000 0.584567
v 0.464864 0.200000 -0.243980
v 0.464864 0.200000 0.243980
v 0.464864 0.500000 -0.243980
v 0.464864 0.500000 0.243980
v 0.525000 0.200000 0.000000
v 0.525000 0.500000 0.000000
v 0.546086 0.000000 -0.396755
v 0.546086 0.000000 0.396755
v 0.546086 0.200000 -0.396755
v 0.546086 0.200000 0.396755
v 0.660250 0.000000 -0.140340
v 0.660250 0.000000 0.140340
v 0.660250 0.200000 -0.140340
v 0.660250 0.200000 0.140340
vt -0.508000 0.000000 0.000000
vt -0.508000 -0.718168 0.000000
vt -0.508000 -1.436336 0.000000
vt -0.508000 -2.154504 0.000000
vt -0.508000 -2.872672 0.000000
vt -0.508000 -3.590840 0.000000
vt -0.508000 -4.309009 0.000000
vt -0.508000 -5.027176 0.000000
vt -0.508000 5.027176 0.000000
vt -0.508000 4.309009 0.000000
vt -0.508000 3.590840 0.000000
vt -0.508000 2.872672 0.000000
vt -0.508000 2.154504 0.000000
vt -0.508000 1.436336 0.000000
vt -0.508000 0.718168 0.000000
vt -0.000000 0.000000 0.000000
vt -0.000000 0.718168 0.000000
vt -0.000000 1.436336 0.000000
vt -0.000000 2.154504 0.000000
vt -0.000000 2.872672 0.000000
vt -0.000000 3.590840 0.000000
vt -0.000000 4.309009 0.000000
vt -0.000000 -5.745345 0.000000
vt -0.000000 -5.027176 0.000000
vt -0.000000 -4.309009 0.000000
vt -0.000000 -3.590840 0.000000
vt -0.000000 -2.872672 0.000000
vt -0.000000 -2.154504 0.000000
vt -0.000000 -1.436336 0.000000
vt -0.000000 -0.718168 0.000000
vt -0.000000 5.027176 0.000000
vt -0.000000 5.027176 0.000000
vt -0.508000 -5.745345 0.000000
vt -0.508000 -5.745345 0.000000
vt 0.000000 1.333500 0.000000
vt 0.619708 1.180756 0.000000
vt 1.097449 0.757514 0.000000
vt 1.323777 0.160736 0.000000
vt 1.246844 -0.472866 0.000000
vt 0.884274 -0.998139 0.000000
vt 0.319127 -1.294751 0.000000
vt -0.319127 -1.294751 0.000000
vt -0.884274 -0.998139 0.000000
vt -1.246844 -0.472866 0.000000
vt -1.323777 0.160736 0.000000
vt -1.097449 0.757514 0.000000
vt -0.619708 1.180756 0.000000
vt 0.000000 -1.714500 0.000000
vt 0.697350 -1.566274 0.000000
vt 1.274122 -1.147224 0.000000
vt 1.630586 -0.529810 0.000000
vt 1.705108 0.179214 0.000000
vt 1.484801 0.857250 0.000000
vt 1.007758 1.387060 0.000000
vt 0.356465 1.677034 0.000000
vt -0.356465 1.677034 0.000000
vt -1.007758 1.387060 0.000000
vt -1.484801 0.857250 0.000000
vt -1.705108 0.179214 0.000000
vt -1.630586 -0.529810 0.000000
vt -1.274122 -1.147224 0.000000
vt -0.697350 -1.566274 0.000000
vt -0.630179 0.363834 0.000000
vt -0.000000 0.727668 0.000000
vt 0.630179 0.363834 0.000000
vt 0.630179 -0.363834 0.000000
vt -0.000000 -0.727668 0.000000
vt -0.630179 -0.363834 0.000000
vt -0.000000 -1.714500 0.000000
vt 0.697350 -1.566274 0.000000
vt 1.274122 -1.147224 0.000000
vt 1.630586 -0.529810 0.000000
vt 1.705108 0.179214 0.000000
vt 1.484801 0.857250 0.000000
vt 1.007758 1.387060 0.000000
vt 0.356465 1.677034 0.000000
vt -0.356465 1.677034 0.000000
vt -1.007758 1.387060 0.000000
vt -1.484801 0.857250 0.000000
vt -1.705108 0.179214 0.000000
vt -1.630586 -0.529810 0.000000
vt -1.274122 -1.147224 0.000000
vt -0.697350 -1.566274 0.000000
vt -0.762000 0.000000 0.000000
vt -0.762000 -0.644510 0.000000
vt -0.762000 -1.289020 0.000000
vt -0.762000 -1.933529 0.000000
vt -0.762000 -2.578039 0.000000
vt -0.762000 -3.222549 0.000000
vt -0.762000 -3.867059 0.000000
vt -0.762000 3.867059 0.000000
vt -0.762000 3.222549 0.000000
vt -0.762000 2.578039 0.000000
vt -0.762000 1.933529 0.000000
vt -0.762000 1.289020 0.000000
vt -0.762000 0.644510 0.000000
vt -0.000000 0.000000 0.000000
vt -0.000000 0.644510 0.000000
vt -0.000000 1.289020 0.000000
vt -0.000000 1.933529 0.000000
vt -0.000000 2.578039 0.000000
vt -0.000000 3.222549 0.000000
vt -0.000000 -4.511569 0.000000
vt -0.000000 -3.867059 0.000000
vt -0.000000 -3.222549 0.000000
vt -0.000000 -2.578039 0.000000
vt -0.000000 -1.933529 0.000000
vt -0.000000 -1.289020 0.000000
vt -0.000000 -0.644510 0.000000
vt -0.000000 3.867059 0.000000
vt -0.000000 3.867059 0.000000
vt -0.762000 -4.511569 0.000000
vt -0.762000 -4.511569 0.000000
vt 0.000000 0.727668 0.000000
vt 0.630179 0.363834 0.000000
vt 0.630179 -0.363834 0.000000
vt 0.000000 -0.727668 0.000000
vt -0.630179 -0.363834 0.000000
vt -0.630179 0.363834 0.000000
vt 0.000000 1.333500 0.000000
vt -0.619708 1.180756 0.000000
vt -1.097449 0.757514 0.000000
vt -1.323777 0.160736 0.000000
vt -1.246844 -0.472866 0.000000
vt -0.884274 -0.998139 0.000000
vt -0.319127 -1.294751 0.000000
vt 0.319127 -1.294751 0.000000
vt 0.884274 -0.998139 0.000000
vt 1.246844 -0.472866 0.000000
vt 1.323777 0.160736 0.000000
vt 1.097449 0.757514 0.000000
vt 0.619708 1.180756 0.000000
vt -0.727668 0.000000 0.000000
vt -0.000000 0.000000 0.000000
vt -0.000000 1.270000 0.000000
vt -0.727668 1.270000 0.000000
vt -0.727668 0.000000 0.000000
vt -0.000000 0.000000 0.000000
vt -0.000000 1.270000 0.000000
vt -0.727668 1.270000 0.000000
vt -0.727668 0.000000 0.000000
vt -0.000000 0.000000 0.000000
vt -0.000000 1.270000 0.000000
vt -0.727668 1.270000 0.000000
vt -0.727668 0.000000 0.000000
vt -0.000000 0.000000 0.000000
vt -0.000000 1.270000 0.000000
vt -0.727668 1.270000 0.000000
vt -0.727668 0.000000 0.000000
vt -0.000000 0.000000 0.000000
vt -0.000000 1.270000 0.000000
vt -0.727668 1.270000 0.000000
vt -0.727668 0.000000 0.000000
vt -0.000000 0.000000 0.000000
vt -0.000000 1.270000 0.000000
vt -0.727668 1.270000 0.000000
vn -2.540000 0.000000 0.000000
vn -2.320405 0.000000 -1.033111
vn -1.699592 0.000000 -1.887588
vn -0.784903 0.000000 -2.415684
vn 0.265502 0.000000 -2.526086
vn 1.270000 0.000000 -2.199704
vn 2.054903 0.000000 -1.492975
vn 2.484495 0.000000 -0.528096
vn 2.484495 0.000000 0.528096
vn 2.054903 0.000000 1.492975
vn 1.270000 0.000000 2.199704
vn 0.265502 0.000000 2.526086
vn -0.784903 0.000000 2.415684
vn -1.699592 0.000000 1.887588
vn -2.320405 0.000000 1.033111
vn -2.540000 0.000000 0.000000
vn -2.320405 0.000000 1.033111
vn -1.699592 0.000000 1.887588
vn -0.784903 0.000000 2.415684
vn 0.265502 0.000000 2.526086
vn 1.270000 0.000000 2.199704
vn 2.054903 0.000000 1.492975
vn 2.484495 0.000000 0.528096
vn 2.484495 0.000000 -0.528096
vn 2.054903 0.000000 -1.492975
vn 1.270000 0.000000 -2.199704
vn 0.265502 0.000000 -2.526086
vn -0.784903 0.000000 -2.415684
vn -1.699592 0.000000 -1.887588
vn -2.320405 0.000000 -1.033111
vn 2.484495 0.000000 0.528096
vn 2.484495 0.000000 0.528096
vn 2.484495 0.000000 0.528096
vn 2.484495 0.000000 0.528096
vn 0.000000 2.540000 0.000000
vn 0.000000 2.540000 0.000000
vn 0.000000 2.540000 0.000000
vn 0.000000 2.540000 0.000000
vn 0.000000 2.540000 0.000000
vn 0.000000 2.540000 0.000000
vn 0.000000 2.540000 0.000000
vn 0.000000 2.540000 0.000000
vn 0.000000 2.540000 0.000000
vn 0.000000 2.540000 0.000000
vn 0.000000 2.540000 0.000000
vn 0.000000 2.540000 0.000000
vn 0.000000 2.540000 0.000000
vn 0.000000 2.540000 0.000000
vn 0.000000 2.540000 0.000000
vn 0.000000 2.540000 0.000000
vn 0.000000 2.540000 0.000000
vn 0.000000 2.540000 0.000000
vn 0.000000 2.540000 0.000000
vn 0.000000 2.540000 0.000000
vn 0.000000 2.540000 0.000000
vn 0.000000 2.540000 0.000000
vn 0.000000 2.540000 0.000000
vn 0.000000 2.540000 0.000000
vn 0.000000 2.540000 0.000000
vn 0.000000 2.540000 0.000000
vn 0.000000 2.540000 0.000000
vn 0.000000 2.540000 0.000000
vn 0.000000 -2.540000 0.000000
vn 0.000000 -2.540000 0.000000
vn 0.000000 -2.540000 0.000000
vn 0.000000 -2.540000 0.000000
vn 0.000000 -2.540000 0.000000
vn 0.000000 -2.540000 0.000000
vn 0.000000 -2.540000 0.000000
vn 0.000000 -2.540000 0.000000
vn 0.000000 -2.540000 0.000000
vn 0.000000 -2.540000 0.000000
vn 0.000000 -2.540000 0.000000
vn 0.000000 -2.540000 0.000000
vn 0.000000 -2.540000 0.000000
vn 0.000000 -2.540000 0.000000
vn 0.000000 -2.540000 0.000000
vn 0.000000 -2.540000 0.000000
vn 0.000000 -2.540000 0.000000
vn 0.000000 -2.540000 0.000000
vn 0.000000 -2.540000 0.000000
vn 0.000000 -2.540000 0.000000
vn 0.000000 -2.540000 0.000000
vn 2.540000 0.000000 0.000000
vn 2.249058 0.000000 1.180397
vn 1.442884 0.000000 2.090379
vn 0.306163 0.000000 2.521481
vn -0.900696 0.000000 2.374941
vn -1.901217 0.000000 1.684332
vn -2.466192 0.000000 0.607862
vn -2.466192 0.000000 -0.607862
vn -1.901217 0.000000 -1.684332
vn -0.900696 0.000000 -2.374941
vn 0.306163 0.000000 -2.521481
vn 1.442884 0.000000 -2.090379
vn 2.249058 0.000000 -1.180397
vn 2.540000 0.000000 0.000000
vn 2.249058 0.000000 -1.180397
vn 1.442884 0.000000 -2.090379
vn 0.306163 0.000000 -2.521481
vn -0.900696 0.000000 -2.374941
vn -1.901217 0.000000 -1.684332
vn -2.466192 0.000000 -0.607862
vn -2.466192 0.000000 0.607862
vn -1.901217 0.000000 1.684332
vn -0.900696 0.000000 2.374941
vn 0.306163 0.000000 2.521481
vn 1.442884 0.000000 2.090379
vn 2.249058 0.000000 1.180397
vn -2.466192 0.000000 -0.607862
vn -2.466192 0.000000 -0.607862
vn -2.466192 0.000000 -0.607862
vn -2.466192 0.000000 -0.607862
vn 0.000000 2.540000 0.000000
vn 0.000000 2.540000 0.000000
vn 0.000000 2.540000 0.000000
vn 0.000000 2.540000 0.000000
vn 0.000000 2.540000 0.000000
vn 0.000000 2.540000 0.000000
vn 0.000000 2.540000 0.000000
vn 0.000000 2.540000 0.000000
vn 0.000000 2.540000 0.000000
vn 0.000000 2.540000 0.000000
vn 0.000000 2.540000 0.000000
vn 0.000000 2.540000 0.000000
vn 0.000000 2.540000 0.000000
vn 0.000000 2.540000 0.000000
vn 0.000000 2.540000 0.000000
vn 0.000000 2.540000 0.000000
vn 0.000000 2.540000 0.000000
vn 0.000000 2.540000 0.000000
vn 0.000000 2.540000 0.000000
vn -2.199704 0.000000 -1.270000
vn -2.199704 0.000000 -1.270000
vn -2.199704 0.000000 -1.270000
vn -2.199704 0.000000 -1.270000
vn -2.199704 0.000000 1.270000
vn -2.199704 0.000000 1.270000
vn -2.199704 0.000000 1.270000
vn -2.199704 0.000000 1.270000
vn 0.000000 0.000000 2.540000
vn 0.000000 0.000000 2.540000
vn 0.000000 0.000000 2.540000
vn 0.000000 0.000000 2.540000
vn 2.199704 0.000000 1.270000
vn 2.199704 0.000000 1.270000
vn 2.199704 0.000000 1.270000
vn 2.199704 0.000000 1.270000
vn 2.199704 0.000000 -1.270000
vn 2.199704 0.000000 -1.270000
vn 2.199704 0.000000 -1.270000
vn 2.199704 0.000000 -1.270000
vn 0.000000 0.000000 -2.540000
vn 0.000000 0.000000 -2.540000
vn 0.000000 0.000000 -2.540000
vn 0.000000 0.000000 -2.540000
usemtl 191,191,191
f 5/2/2 1/16/16 2/1/1
f 2/1/1 1/16/16 4/17/17
f 2/1/1 4/17/17 6/15/15
f 6/15/15 4/17/17 12/18/18
f 6/15/15 12/18/18 14/14/14
f 14/14/14 12/18/18 22/19/19
f 14/14/14 22/19/19 24/13/13
f 24/13/13 22/19/19 38/20/20
f 24/13/13 38/20/20 40/12/12
f 40/12/12 38/20/20 52/21/21
f 40/12/12 52/21/21 54/11/11
f 54/11/11 52/21/21 62/22/22
f 54/11/11 62/22/22 64/10/10
f 64/10/10 62/22/22 66/31/31
f 64/10/10 66/32/32 68/9/9
f 68/33/33 66/23/23 65/24/24
f 68/34/34 65/24/24 67/8/8
f 67/8/8 65/24/24 61/25/25
f 67/8/8 61/25/25 63/7/7
f 63/7/7 61/25/25 51/26/26
f 63/7/7 51/26/26 53/6/6
f 53/6/6 51/26/26 37/27/27
f 53/6/6 37/27/27 39/5/5
f 39/5/5 37/27/27 21/28/28
f 39/5/5 21/28/28 23/4/4
f 23/4/4 21/28/28 11/29/29
f 23/4/4 11/29/29 13/3/3
f 13/3/3 11/29/29 3/30/30
f 13/3/3 3/30/30 5/2/2
f 5/2/2 3/30/30 1/16/16
f 56/36/36 68/55/55 59/35/35
f 59/35/35 68/55/55 67/56/56
f 59/35/35 67/56/56 55/47/47
f 55/47/47 67/56/56 63/57/57
f 55/47/47 63/57/57 47/46/46
f 47/46/46 63/57/57 53/58/58
f 47/46/46 53/58/58 33/45/45
f 33/45/45 53/58/58 39/59/59
f 33/45/45 39/59/59 23/60/60
f 68/55/55 56/36/36 64/54/54
f 64/54/54 56/36/36 48/37/37
f 64/54/54 48/37/37 54/53/53
f 54/53/53 48/37/37 34/38/38
f 54/53/53 34/38/38 40/52/52
f 40/52/52 34/38/38 24/51/51
f 24/51/51 34/38/38 26/39/39
f 24/51/51 26/39/39 14/50/50
f 14/50/50 26/39/39 16/40/40
f 14/50/50 16/40/40 6/49/49
f 6/49/49 16/40/40 8/41/41
f 6/49/49 8/41/41 2/48/48
f 2/48/48 8/41/41 7/42/42
f 2/48/48 7/42/42 5/62/62
f 5/62/62 7/42/42 15/43/43
f 5/62/62 15/43/43 13/61/61
f 13/61/61 15/43/43 25/44/44
f 13/61/61 25/44/44 23/60/60
f 23/60/60 25/44/44 33/45/45
f 45/64/64 62/78/78 42/63/63
f 42/63/63 62/78/78 52/79/79
f 42/63/63 52/79/79 38/80/80
f 41/65/65 61/75/75 45/64/64
f 45/64/64 61/75/75 65/76/76
f 45/64/64 65/76/76 66/77/77
f 29/66/66 37/73/73 41/65/65
f 41/65/65 37/73/73 51/74/74
f 41/65/65 51/74/74 61/75/75
f 19/67/67 3/70/70 29/66/66
f 29/66/66 3/70/70 11/71/71
f 29/66/66 11/71/71 21/72/72
f 30/68/68 4/83/83 19/67/67
f 19/67/67 4/83/83 1/69/69
f 19/67/67 1/69/69 3/70/70
f 42/63/63 38/80/80 30/68/68
f 30/68/68 38/80/80 22/81/81
f 30/68/68 22/81/81 12/82/82
f 21/72/72 37/73/73 29/66/66
f 66/77/77 62/78/78 45/64/64
f 12/82/82 4/83/83 30/68/68
f 58/85/85 59/97/97 60/84/84
f 60/84/84 59/97/97 55/98/98
f 60/84/84 55/98/98 57/96/96
f 57/96/96 55/98/98 47/99/99
f 57/96/96 47/99/99 49/95/95
f 49/95/95 47/99/99 33/100/100
f 49/95/95 33/100/100 35/94/94
f 35/94/94 33/100/100 25/101/101
f 35/94/94 25/101/101 27/93/93
f 27/93/93 25/101/101 15/102/102
f 27/93/93 15/102/102 17/92/92
f 17/92/92 15/102/102 7/110/110
f 17/92/92 7/111/111 9/91/91
f 9/112/112 7/103/103 8/104/104
f 9/113/113 8/104/104 10/90/90
f 10/90/90 8/104/104 16/105/105
f 10/90/90 16/105/105 18/89/89
f 18/89/89 16/105/105 26/106/106
f 18/89/89 26/106/106 28/88/88
f 28/88/88 26/106/106 34/107/107
f 28/88/88 34/107/107 36/87/87
f 36/87/87 34/107/107 48/108/108
f 36/87/87 48/108/108 50/86/86
f 50/86/86 48/108/108 56/109/109
f 50/86/86 56/109/109 58/85/85
f 58/85/85 56/109/109 59/97/97
f 44/115/115 58/132/132 46/114/114
f 46/114/114 58/132/132 60/120/120
f 46/114/114 60/120/120 57/121/121
f 32/116/116 36/130/130 44/115/115
f 44/115/115 36/130/130 50/131/131
f 44/115/115 50/131/131 58/132/132
f 20/117/117 18/128/128 32/116/116
f 32/116/116 18/128/128 28/129/129
f 32/116/116 28/129/129 36/130/130
f 31/118/118 17/125/125 20/117/117
f 20/117/117 17/125/125 9/126/126
f 20/117/117 9/126/126 10/127/127
f 43/119/119 35/123/123 31/118/118
f 31/118/118 35/123/123 27/124/124
f 31/118/118 27/124/124 17/125/125
f 46/114/114 57/121/121 43/119/119
f 43/119/119 57/121/121 49/122/122
f 43/119/119 49/122/122 35/123/123
f 10/127/127 18/128/128 20/117/117
f 44/133/133 46/134/134 42/136/136
f 42/136/136 46/134/134 45/135/135
f 46/137/137 43/138/138 45/140/140
f 45/140/140 43/138/138 41/139/139
f 43/141/141 31/142/142 41/144/144
f 41/144/144 31/142/142 29/143/143
f 31/145/145 20/146/146 29/148/148
f 29/148/148 20/146/146 19/147/147
f 20/149/149 32/150/150 19/152/152
f 19/152/152 32/150/150 30/151/151
f 32/153/153 44/154/154 30/156/156
f 30/156/156 44/154/154 42/155/155

# 68 vertices
# 156 texture params
# 156 normals
# 136 facets

# 1 groups
